<svg width="1975" height="1877" viewBox="0 0 1975 1877" fill="none" xmlns="http://www.w3.org/2000/svg">
  <rect width="1975" height="1877" rx="351" fill="#7C3AED"/>
  <path d="M890.831 408.249C873.364 410.782 854.031 418.515 839.897 428.649C835.364 431.849 826.831 439.582 820.964 445.849C800.697 467.449 787.764 495.849 782.431 531.449C780.697 543.049 780.431 586.649 780.431 861.982C780.431 1210.38 780.831 1193.18 772.431 1218.78C750.031 1287.32 680.164 1331.05 608.831 1321.32C595.764 1319.58 573.897 1312.38 560.564 1305.45C546.964 1298.25 529.097 1284.78 519.097 1273.72C449.897 1198.25 474.031 1079.85 567.631 1035.98C599.897 1020.92 640.697 1018.78 676.164 1030.25C695.097 1036.52 712.164 1046.65 732.031 1063.58L738.431 1069.18L738.164 981.849C738.031 910.782 737.631 894.249 736.164 893.315C732.831 891.049 707.897 883.849 693.097 880.649C670.031 875.849 651.364 874.382 620.697 875.182C572.431 876.249 536.831 884.915 495.097 905.582C391.097 957.182 326.297 1065.98 330.164 1182.78C335.231 1335.58 456.831 1460.38 610.697 1470.65C692.831 1476.25 776.564 1445.32 836.297 1387.45C886.697 1338.65 915.897 1280.38 925.097 1210.12C926.964 1195.98 927.231 1164.65 927.097 949.449C927.097 682.382 926.831 694.382 934.697 679.849C936.697 676.115 940.697 671.315 943.631 669.315C963.631 654.649 982.564 671.715 1009.9 728.782C1028.96 768.649 1039.63 798.249 1077.36 914.782C1123.36 1057.45 1134.83 1086.38 1158.3 1120.78C1190.43 1167.85 1235.36 1189.72 1288.83 1184.12C1320.83 1180.92 1348.43 1168.52 1372.96 1146.65C1399.36 1123.05 1414.3 1100.92 1444.16 1041.72C1456.16 1017.72 1468.96 992.649 1472.7 986.115C1511.1 918.382 1553.36 882.115 1610.56 867.449C1617.76 865.715 1628.43 863.715 1634.03 863.315C1639.76 862.782 1644.03 861.849 1643.63 861.182C1642.43 859.182 1628.7 850.915 1616.03 844.649C1581.23 827.049 1546.56 818.915 1507.76 818.782C1433.1 818.782 1378.83 853.182 1337.23 927.049C1312.7 970.782 1306.03 980.115 1295.5 986.382C1279.36 995.849 1261.36 986.782 1250.56 963.582C1245.76 953.315 1236.03 924.515 1214.43 857.449C1167.1 709.982 1150.96 667.582 1116.3 598.782C1056.83 480.649 998.964 419.849 935.497 408.782C923.364 406.649 903.231 406.382 890.831 408.249Z" fill="white"/>
</svg>
